<?xml version="1.0" standalone="no"?>
<!DOCTYPE svg PUBLIC "-//W3C//DTD SVG 20010904//EN"
 "http://www.w3.org/TR/2001/REC-SVG-20010904/DTD/svg10.dtd">
<svg version="1.0" xmlns="http://www.w3.org/2000/svg"
 width="1000.000000pt" height="1000.000000pt" viewBox="0 0 1000.000000 1000.000000"
 preserveAspectRatio="xMidYMid meet">
<metadata>
Created by potrace 1.11, written by Peter Selinger 2001-2013
</metadata>
<g transform="translate(0.000000,1000.000000) scale(0.100000,-0.100000)"
fill="#000000" stroke="none">
<path d="M524 9980 c-245 -64 -442 -262 -504 -506 -20 -76 -20 -131 -20 -4474
0 -4343 0 -4398 20 -4474 62 -245 261 -444 506 -506 76 -20 131 -20 4474 -20
4343 0 4398 0 4474 20 245 62 444 261 506 506 20 76 20 131 20 4474 0 4343 0
4398 -20 4474 -62 245 -261 444 -506 506 -76 20 -130 20 -4478 19 -4263 0
-4403 -1 -4472 -19z m7456 -1035 c317 -54 639 -229 868 -469 473 -498 594
-1249 303 -1879 -156 -340 -440 -629 -771 -786 -216 -102 -376 -140 -620 -148
-210 -6 -353 14 -540 76 -930 311 -1373 1410 -935 2316 243 501 711 839 1255
905 101 12 324 4 440 -15z m-5232 -854 c310 -64 562 -196 786 -411 255 -246
418 -544 489 -895 18 -93 22 -143 22 -320 0 -179 -4 -227 -23 -324 -134 -667
-616 -1162 -1266 -1303 -85 -19 -133 -22 -301 -22 -215 0 -305 13 -481 69
-117 38 -326 145 -433 222 -240 172 -450 442 -561 721 -90 226 -126 436 -117
696 8 264 56 456 171 691 101 205 203 339 376 498 235 216 541 356 866 397
113 14 356 4 472 -19z m3250 -693 c-8 -117 9 -324 35 -455 13 -62 21 -113 18
-113 -2 0 -427 -32 -944 -70 -1007 -75 -956 -74 -957 -20 -1 86 -78 341 -146
489 -24 52 -42 96 -40 98 5 5 1902 150 1985 152 l54 1 -5 -82z m1217 -1787
c104 -34 275 -65 431 -78 l91 -8 -245 -690 c-135 -379 -246 -692 -248 -693 -1
-2 -51 27 -111 64 -120 76 -253 137 -388 180 -49 16 -91 29 -93 30 -2 1 391
1112 427 1208 6 15 17 26 24 23 7 -2 57 -19 112 -36z m-2701 -866 l653 -669
-101 -100 c-101 -101 -212 -240 -277 -348 -19 -32 -37 -56 -40 -55 -13 4
-1359 1386 -1358 1394 0 4 35 33 77 63 94 68 260 232 327 323 27 37 53 66 58
64 4 -1 302 -304 661 -672z m2037 -434 c133 -29 236 -64 359 -122 466 -222
795 -653 902 -1180 20 -98 23 -144 23 -324 0 -179 -3 -227 -23 -323 -136 -674
-645 -1189 -1292 -1308 -146 -28 -421 -25 -567 4 -646 129 -1140 635 -1275
1304 -20 96 -23 144 -23 323 0 180 3 226 23 324 142 702 688 1228 1367 1320
113 16 395 5 506 -18z"/>
</g>
</svg>
